<svg xmlns="http://www.w3.org/2000/svg" width="104.794" height="36" viewBox="0 0 104.794 36"><g fill="#245d6b" color="#245d6b" transform="translate(0 3.9999999999999982) scale(0.2800001)"><svg width="100" height="100" x="0" y="0" viewBox="0 0 100 100"><path d="M50,5.2c-21.2,0-38.3,17.2-38.3,38.3c0,16.9,10.9,31.2,26.1,36.3L50,94.8l12.2-14.9c15.2-5.1,26.1-19.4,26.1-36.3 C88.3,22.4,71.2,5.2,50,5.2z M69.5,45.1h-2.4v7.7c0,0.7-0.6,1.3-1.3,1.3c-0.7,0-1.3-0.6-1.3-1.3v-7.7h-3.1v10.7 c0,0.7-0.6,1.3-1.3,1.3s-1.3-0.6-1.3-1.3V45.1H41.3v10.7c0,0.7-0.6,1.3-1.3,1.3c-0.7,0-1.3-0.6-1.3-1.3V45.1h-3.1v7.7 c0,0.7-0.6,1.3-1.3,1.3s-1.3-0.6-1.3-1.3v-7.7h-2.4c-0.7,0-1.3-0.6-1.3-1.3c0-0.7,0.6-1.3,1.3-1.3h2.4v-7.7c0-0.7,0.6-1.3,1.3-1.3 s1.3,0.6,1.3,1.3v7.7h3.1V31.8c0-0.7,0.6-1.3,1.3-1.3c0.7,0,1.3,0.6,1.3,1.3v10.7h17.3V31.8c0-0.7,0.6-1.3,1.3-1.3s1.3,0.6,1.3,1.3 v10.7h3.1v-7.7c0-0.7,0.6-1.3,1.3-1.3c0.7,0,1.3,0.6,1.3,1.3v7.7h2.4c0.7,0,1.3,0.6,1.3,1.3C70.9,44.5,70.3,45.1,69.5,45.1z"/></svg></g><path fill="#454545" fill-rule="nonzero" d="M5.88 16.97L2.98 16.97Q2.88 16.97 2.86 16.85L2.86 16.85L0.02 0.36Q0 0.26 0.10 0.26L0.10 0.26L2.78 0.26Q2.88 0.26 2.90 0.36L2.90 0.36L4.44 11.21L6.02 0.36Q6.05 0.26 6.17 0.26L6.17 0.26L8.33 0.26Q8.42 0.26 8.45 0.36L8.45 0.36L10.01 11.21L11.57 0.36Q11.59 0.26 11.69 0.26L11.69 0.26L14.35 0.26Q14.47 0.26 14.45 0.36L14.45 0.36L11.59 16.85Q11.57 16.90 11.52 16.93Q11.47 16.97 11.47 16.97L11.47 16.97L8.57 16.97Q8.50 16.97 8.45 16.85L8.45 16.85L7.22 8.23L6 16.85Q5.98 16.97 5.88 16.97L5.88 16.97ZM19.82 17.21L19.82 17.21Q18.53 17.21 17.46 16.55Q16.39 15.89 15.74 14.80Q15.10 13.70 15.10 12.38L15.10 12.38L15.12 4.78Q15.12 3.46 15.76 2.38Q16.39 1.30 17.47 0.65Q18.55 0 19.82 0L19.82 0Q21.12 0 22.18 0.65Q23.23 1.30 23.87 2.38Q24.50 3.46 24.50 4.78L24.50 4.78L24.53 12.38Q24.53 13.70 23.89 14.80Q23.26 15.89 22.19 16.55Q21.12 17.21 19.82 17.21ZM19.82 14.30L19.82 14.30Q20.54 14.30 21.08 13.72Q21.62 13.13 21.62 12.38L21.62 12.38L21.60 4.78Q21.60 3.98 21.10 3.43Q20.59 2.88 19.82 2.88L19.82 2.88Q19.08 2.88 18.55 3.42Q18.02 3.96 18.02 4.78L18.02 4.78L18.02 12.38Q18.02 13.18 18.55 13.74Q19.08 14.30 19.82 14.30ZM29.16 16.97L26.45 16.97Q26.35 16.97 26.35 16.85L26.35 16.85L26.40 0.36Q26.40 0.26 26.50 0.26L26.50 0.26L31.34 0.26Q32.64 0.26 33.73 0.90Q34.82 1.54 35.47 2.60Q36.12 3.67 36.12 5.02L36.12 5.02Q36.12 5.90 35.86 6.61Q35.59 7.32 35.23 7.81Q34.87 8.30 34.58 8.54L34.58 8.54Q35.88 9.98 35.88 11.93L35.88 11.93L35.90 16.85Q35.90 16.97 35.78 16.97L35.78 16.97L33.07 16.97Q32.98 16.97 32.98 16.90L32.98 16.90L32.98 11.93Q32.98 11.06 32.36 10.43Q31.75 9.79 30.86 9.79L30.86 9.79L29.28 9.79L29.26 16.85Q29.26 16.97 29.16 16.97L29.16 16.97ZM29.28 3.14L29.28 6.91L31.34 6.91Q32.09 6.91 32.66 6.36Q33.24 5.81 33.24 5.02L33.24 5.02Q33.24 4.25 32.68 3.70Q32.11 3.14 31.34 3.14L31.34 3.14L29.28 3.14ZM40.73 16.97L38.02 16.97Q37.92 16.97 37.92 16.85L37.92 16.85L37.97 0.36Q37.97 0.26 38.06 0.26L38.06 0.26L42.91 0.26Q44.21 0.26 45.30 0.90Q46.39 1.54 47.04 2.60Q47.69 3.67 47.69 5.02L47.69 5.02Q47.69 5.90 47.42 6.61Q47.16 7.32 46.80 7.81Q46.44 8.30 46.15 8.54L46.15 8.54Q47.45 9.98 47.45 11.93L47.45 11.93L47.47 16.85Q47.47 16.97 47.35 16.97L47.35 16.97L44.64 16.97Q44.54 16.97 44.54 16.90L44.54 16.90L44.54 11.93Q44.54 11.06 43.93 10.43Q43.32 9.79 42.43 9.79L42.43 9.79L40.85 9.79L40.82 16.85Q40.82 16.97 40.73 16.97L40.73 16.97ZM40.85 3.14L40.85 6.91L42.91 6.91Q43.66 6.91 44.23 6.36Q44.81 5.81 44.81 5.02L44.81 5.02Q44.81 4.25 44.24 3.70Q43.68 3.14 42.91 3.14L42.91 3.14L40.85 3.14ZM52.30 16.97L49.58 16.97Q49.49 16.97 49.49 16.85L49.49 16.85L49.54 0.38Q49.54 0.26 49.63 0.26L49.63 0.26L52.32 0.26Q52.42 0.26 52.42 0.38L52.42 0.38L52.42 6.07L56.18 0.36Q56.26 0.26 56.35 0.26L56.35 0.26L59.11 0.26Q59.21 0.26 59.16 0.36L59.16 0.36L55.01 6.98L59.66 16.87Q59.71 16.97 59.54 16.97L59.54 16.97L56.62 16.97Q56.50 16.97 56.47 16.87L56.47 16.87L53.23 9.82L52.39 11.14L52.39 16.85Q52.39 16.97 52.30 16.97L52.30 16.97ZM65.50 16.97L62.74 16.97Q62.66 16.97 62.66 16.87L62.66 16.87L62.69 10.06L59.47 0.36Q59.45 0.26 59.54 0.26L59.54 0.26L62.21 0.26Q62.33 0.26 62.35 0.36L62.35 0.36L64.13 6.82L65.93 0.36Q65.95 0.26 66.05 0.26L66.05 0.26L68.74 0.26Q68.83 0.26 68.81 0.36L68.81 0.36L65.57 9.96L65.59 16.87Q65.59 16.97 65.50 16.97L65.50 16.97Z" transform="translate(36, 9.516)"/></svg>